# xmcd CD database file
#
# Track frame offsets:
#	150
#	13481
#	25731
#	41547
#	56417
#	76606
#	89557
#	106893
#	119144
#	131518
#	143726
#	161212
#	185918
#
# Disc length: 2732 seconds
#
# Revision: 0
# Processed by: cddbd v1.5.2PL0 Copyright (c) Steve Scherf et al.
# Submitted via: CDex 1.51
#
DISCID=b30aaa0d
DTITLE=The Hot Club - Samois Faire
DYEAR=2007
DGENRE=Jazz
TTITLE0=Samois Faire
TTITLE1=Lucky Day
TTITLE2=Sheila's Waltz (Overture)
TTITLE3=Poorhouse (Ridin' to the Poorhouse in Style)
TTITLE4=More Than I Can Say
TTITLE5=I Love You Just Because You're You
TTITLE6=Dreaming of You
TTITLE7=Could This Be Love
TTITLE8=Flight of the Gypsies
TTITLE9=Borsalino
TTITLE10=The One That Got Away
TTITLE11=Sheila's Waltz
TTITLE12=Reve De Jour
EXTD=YEAR: 2007
EXTT0=
EXTT1=
EXTT2=
EXTT3=
EXTT4=
EXTT5=
EXTT6=
EXTT7=
EXTT8=
EXTT9=
EXTT10=
EXTT11=
EXTT12=
PLAYORDER=
